<svg
  width="504"
  height="177"
  viewBox="0 0 504 177"
  fill="none"
  xmlns="http://www.w3.org/2000/svg"
>
  <g filter="url(#filter0_d_593_14316)">
    <rect
      width="474.158"
      height="114.153"
      transform="translate(3.18457 42.2419) rotate(-4.95211)"
      fill="#F15934"
    />
    <path
      d="M118.549 88.9218C121.576 89.1958 124.24 90.5471 126.542 92.9755C128.844 95.404 130.138 98.2684 130.424 101.569C130.669 104.39 130.145 107.01 128.853 109.428C127.609 111.788 125.661 113.754 123.008 115.324C120.351 116.842 117.186 117.759 113.513 118.078L91.3154 120.001L86.5071 64.5071L107.667 62.6737C111.446 62.3463 114.749 62.7037 117.574 63.746C120.4 64.7883 122.599 66.3408 124.172 68.4034C125.74 70.4127 126.64 72.7482 126.871 75.4097C127.147 78.6036 126.526 81.339 125.007 83.6158C123.488 85.8927 121.336 87.6614 118.549 88.9218ZM97.6299 87.0338L108.888 86.0583C111.869 85.8 114.127 84.934 115.662 83.4602C117.246 81.9286 117.927 79.8852 117.705 77.3301C117.488 74.8283 116.468 72.9591 114.645 71.7227C112.87 70.4284 110.493 69.9104 107.512 70.1687L96.2531 71.1442L97.6299 87.0338ZM112.071 110.721C115.159 110.453 117.516 109.498 119.143 107.856C120.771 106.213 121.469 104.061 121.239 101.399C121.004 98.6845 119.885 96.6093 117.884 95.1738C115.882 93.7383 113.338 93.1543 110.25 93.4218L98.2733 94.4596L99.7746 111.786L112.071 110.721ZM170.435 113.146L155.736 92.055L148.789 92.6569L150.712 114.854L141.61 115.643L136.801 60.1493L155.965 58.4889C160.223 58.1199 163.881 58.5538 166.938 59.7906C170.048 61.0228 172.43 62.8275 174.084 65.2049C175.791 67.5776 176.779 70.3077 177.046 73.3951C177.36 77.0149 176.581 80.4075 174.71 83.5729C172.888 86.6805 169.84 88.9558 165.568 90.3986L181.294 112.205L170.435 113.146ZM148.16 85.3908L158.22 84.5191C161.627 84.2239 164.108 83.1508 165.664 81.2998C167.273 79.4442 167.953 77.0791 167.704 74.2046C167.455 71.3301 166.41 69.1682 164.568 67.7188C162.722 66.2162 160.068 65.6149 156.608 65.9147L146.547 66.7864L148.16 85.3908ZM224.534 97.0346L201.298 99.0479L198.288 110.732L188.786 111.555L203.853 54.2591L214.393 53.3458L239.09 107.197L229.509 108.027L224.534 97.0346ZM221.335 89.8302L210.078 64.8214L203.21 91.4007L221.335 89.8302ZM266.068 105.422C262.342 105.745 258.933 105.397 255.842 104.378C252.745 103.305 250.242 101.645 248.331 99.3973C246.42 97.1495 245.326 94.4286 245.049 91.2347L254.791 90.3907C255.211 92.7676 256.313 94.6565 258.097 96.0572C259.934 97.4533 262.37 98.0199 265.404 97.757C268.545 97.4849 270.929 96.5275 272.556 94.8848C274.179 93.1889 274.887 91.1432 274.679 88.7478C274.518 86.8847 273.828 85.416 272.608 84.3418C271.442 83.2629 270.006 82.4756 268.301 81.9798C266.649 81.4794 264.353 80.9811 261.414 80.485C257.711 79.8404 254.674 79.1382 252.302 78.3784C249.978 77.5607 247.928 76.1831 246.151 74.2454C244.375 72.3077 243.336 69.6089 243.036 66.1488C242.76 62.9549 243.316 60.0911 244.705 57.5573C246.095 55.0235 248.171 52.9933 250.935 51.4667C253.699 49.9401 256.971 49.013 260.75 48.6856C266.126 48.2197 270.636 49.1966 274.278 51.6162C277.968 53.978 280.203 57.4849 280.981 62.137L270.921 63.0087C270.586 60.9998 269.478 59.3528 267.597 58.0677C265.715 56.7827 263.338 56.2647 260.463 56.5138C257.855 56.7398 255.783 57.5897 254.248 59.0634C252.713 60.5372 252.054 62.525 252.271 65.0269C252.419 66.7303 253.047 68.0971 254.155 69.1274C255.312 70.0997 256.716 70.8361 258.369 71.3365C260.021 71.837 262.263 72.3399 265.096 72.8453C268.857 73.5384 271.925 74.2915 274.302 75.1046C276.732 75.913 278.837 77.3127 280.619 79.3036C282.449 81.2366 283.516 83.9598 283.82 87.4731C284.065 90.2944 283.524 93.0228 282.197 95.6584C280.923 98.2895 278.889 100.504 276.095 102.301C273.35 104.041 270.007 105.081 266.068 105.422ZM270.091 108.211C271.076 110.915 271.677 113.517 271.894 116.019C272.47 122.673 269.751 126.261 263.736 126.782L263.39 122.79C264.721 122.674 265.673 122.216 266.247 121.416C266.822 120.615 267.042 119.443 266.908 117.899L266.763 116.222L262.531 116.589L261.867 108.924L270.091 108.211ZM321.284 100.638C316.121 101.086 311.253 100.301 306.68 98.2834C302.156 96.2084 298.43 93.1256 295.501 89.0353C292.621 84.8871 290.946 80.0982 290.475 74.6686C290.005 69.239 290.834 64.2599 292.962 59.7314C295.143 55.1982 298.286 51.5471 302.391 48.7781C306.543 45.9513 311.201 44.3141 316.365 43.8667C321.582 43.4147 326.452 44.2263 330.976 46.3013C335.548 48.3185 339.272 51.3746 342.148 55.4696C345.023 59.5645 346.696 64.3268 347.167 69.7564C347.637 75.1861 346.811 80.1917 344.687 84.7735C342.559 89.302 339.418 92.9797 335.265 95.8066C331.161 98.5756 326.501 100.186 321.284 100.638ZM320.599 92.7332C324.272 92.415 327.474 91.3062 330.206 89.407C332.933 87.4545 334.961 84.8654 336.29 81.6396C337.668 78.356 338.18 74.6647 337.825 70.5659C337.469 66.4671 336.333 62.9454 334.415 60.001C332.551 57.0519 330.11 54.8769 327.092 53.4758C324.075 52.0746 320.73 51.5332 317.057 51.8515C313.384 52.1697 310.182 53.2785 307.45 55.1777C304.719 57.0769 302.661 59.6418 301.279 62.8722C299.949 66.098 299.462 69.7603 299.817 73.8591C300.172 77.9579 301.285 81.5085 303.154 84.5108C305.071 87.4552 307.541 89.6546 310.563 91.109C313.581 92.5101 316.926 93.0515 320.599 92.7332ZM401.559 37.209L385.527 94.5086L374.987 95.4218L349.259 41.7406L359 40.8966L379.448 85.6231L391.977 38.0392L401.559 37.209Z"
      fill="white"
    />
  </g>
  <defs>
    <filter
      id="filter0_d_593_14316"
      x="0.000293255"
      y="-1.52588e-05"
      width="503.596"
      height="176.011"
      filterUnits="userSpaceOnUse"
      color-interpolation-filters="sRGB"
    >
      <feFlood flood-opacity="0" result="BackgroundImageFix" />
      <feColorMatrix
        in="SourceAlpha"
        type="matrix"
        values="0 0 0 0 0 0 0 0 0 0 0 0 0 0 0 0 0 0 127 0"
        result="hardAlpha"
      />
      <feOffset dx="7.49242" dy="9.36552" />
      <feGaussianBlur stdDeviation="5.33835" />
      <feComposite in2="hardAlpha" operator="out" />
      <feColorMatrix
        type="matrix"
        values="0 0 0 0 0 0 0 0 0 0 0 0 0 0 0 0 0 0 0.47 0"
      />
      <feBlend
        mode="normal"
        in2="BackgroundImageFix"
        result="effect1_dropShadow_593_14316"
      />
      <feBlend
        mode="normal"
        in="SourceGraphic"
        in2="effect1_dropShadow_593_14316"
        result="shape"
      />
    </filter>
  </defs>
</svg>
