<svg
    viewBox="0 0 40 45"
    fill="none"
    xmlns="http://www.w3.org/2000/svg"
>
    <path
        d="M6.66667 45H33.3333C35.1014 45 36.7971 44.2888 38.0474 43.023C39.2976 41.7571 40 40.0402 40 38.25V11.25C40 10.0565 39.5317 8.91193 38.6983 8.06802C37.8648 7.22411 36.7343 6.75 35.5556 6.75H31.1111V2.25C31.1111 1.65326 30.877 1.08097 30.4602 0.65901C30.0435 0.237053 29.4783 0 28.8889 0C28.2995 0 27.7343 0.237053 27.3175 0.65901C26.9008 1.08097 26.6667 1.65326 26.6667 2.25V6.75H13.3333V2.25C13.3333 1.65326 13.0992 1.08097 12.6825 0.65901C12.2657 0.237053 11.7005 0 11.1111 0C10.5217 0 9.95651 0.237053 9.53976 0.65901C9.12302 1.08097 8.88889 1.65326 8.88889 2.25V6.75H4.44444C3.2657 6.75 2.13524 7.22411 1.30175 8.06802C0.468252 8.91193 0 10.0565 0 11.25V38.25C0 40.0402 0.702379 41.7571 1.95262 43.023C3.20286 44.2888 4.89856 45 6.66667 45ZM4.44444 23.625C4.44444 23.3266 4.56151 23.0405 4.76988 22.8295C4.97826 22.6185 5.26087 22.5 5.55556 22.5H34.4444C34.7391 22.5 35.0217 22.6185 35.2301 22.8295C35.4385 23.0405 35.5556 23.3266 35.5556 23.625V38.25C35.5556 38.8467 35.3214 39.419 34.9047 39.841C34.4879 40.2629 33.9227 40.5 33.3333 40.5H6.66667C6.0773 40.5 5.51207 40.2629 5.09532 39.841C4.67857 39.419 4.44444 38.8467 4.44444 38.25V23.625Z"
        fill="#F15934"
    />
</svg>
